<svg width="67" height="134" viewBox="0 0 67 134" fill="none" xmlns="http://www.w3.org/2000/svg">
<path d="M0.0527637 129.679C-0.124267 130.203 0.156317 130.77 0.679461 130.947L9.20458 133.832C9.72772 134.009 10.2953 133.729 10.4724 133.205C10.6494 132.682 10.3688 132.115 9.84566 131.938L2.26777 129.373L4.83207 121.795C5.0091 121.272 4.72852 120.705 4.20538 120.528C3.68223 120.351 3.11463 120.631 2.9376 121.154L0.0527637 129.679ZM2.89746 2.11755C31.5387 5.77715 48.3188 14.2041 56.8402 24.9148C65.3209 35.5742 65.7939 48.7245 61.2694 62.3082C56.7399 75.9071 47.2318 89.8127 35.9831 101.739C24.737 113.663 11.8209 123.535 0.556858 129.104L1.44314 130.896C12.9649 125.201 26.067 115.168 37.4381 103.112C48.8065 91.0581 58.5146 76.9076 63.1669 62.9402C67.8243 48.9577 67.4448 35.0315 58.4053 23.6696C49.4065 12.3589 31.9987 3.81967 3.15095 0.133678L2.89746 2.11755Z" fill="black"/>
</svg>
